<mxfile host="app.diagrams.net" modified="2024-01-26T16:43:18.131Z" agent="Mozilla/5.0 (Windows NT 10.0; Win64; x64) AppleWebKit/537.36 (KHTML, like Gecko) Chrome/121.0.0.0 Safari/537.36" etag="pgDNoEBK1eDiEbd3iHL-" version="23.0.2" type="github">
  <diagram name="Page-1" id="84lWlQYNkhRJp31IneOG">
    <mxGraphModel dx="1050" dy="625" grid="1" gridSize="10" guides="1" tooltips="1" connect="1" arrows="1" fold="1" page="1" pageScale="1" pageWidth="850" pageHeight="1100" math="0" shadow="0">
      <root>
        <mxCell id="0" />
        <mxCell id="1" parent="0" />
        <mxCell id="G4ud9qvy3oYhWYAnnlkO-3" value="" style="edgeStyle=orthogonalEdgeStyle;rounded=0;orthogonalLoop=1;jettySize=auto;html=1;" edge="1" parent="1" source="G4ud9qvy3oYhWYAnnlkO-1" target="G4ud9qvy3oYhWYAnnlkO-2">
          <mxGeometry relative="1" as="geometry" />
        </mxCell>
        <mxCell id="G4ud9qvy3oYhWYAnnlkO-1" value="Pig farm&lt;br&gt;300 m3/d liquid manure" style="rounded=1;whiteSpace=wrap;html=1;fillColor=#6d8764;fontColor=#ffffff;strokeColor=#3A5431;" vertex="1" parent="1">
          <mxGeometry x="530" y="75" width="120" height="60" as="geometry" />
        </mxCell>
        <mxCell id="G4ud9qvy3oYhWYAnnlkO-5" value="" style="edgeStyle=orthogonalEdgeStyle;rounded=0;orthogonalLoop=1;jettySize=auto;html=1;" edge="1" parent="1" source="G4ud9qvy3oYhWYAnnlkO-2" target="G4ud9qvy3oYhWYAnnlkO-4">
          <mxGeometry relative="1" as="geometry" />
        </mxCell>
        <mxCell id="G4ud9qvy3oYhWYAnnlkO-24" value="" style="edgeStyle=orthogonalEdgeStyle;rounded=0;orthogonalLoop=1;jettySize=auto;html=1;" edge="1" parent="1" source="G4ud9qvy3oYhWYAnnlkO-2" target="G4ud9qvy3oYhWYAnnlkO-23">
          <mxGeometry relative="1" as="geometry" />
        </mxCell>
        <mxCell id="G4ud9qvy3oYhWYAnnlkO-2" value="Carbon dioxide assisted hyrdolysis volume 1000m3 with agitators, carbon dioxide injectors" style="rounded=1;whiteSpace=wrap;html=1;fillColor=#647687;fontColor=#ffffff;strokeColor=#314354;" vertex="1" parent="1">
          <mxGeometry x="530" y="165" width="120" height="150" as="geometry" />
        </mxCell>
        <mxCell id="G4ud9qvy3oYhWYAnnlkO-7" value="" style="edgeStyle=orthogonalEdgeStyle;rounded=0;orthogonalLoop=1;jettySize=auto;html=1;" edge="1" parent="1" source="G4ud9qvy3oYhWYAnnlkO-4" target="G4ud9qvy3oYhWYAnnlkO-6">
          <mxGeometry relative="1" as="geometry" />
        </mxCell>
        <mxCell id="G4ud9qvy3oYhWYAnnlkO-4" value="Digesters" style="rounded=1;whiteSpace=wrap;html=1;fillColor=#6d8764;fontColor=#ffffff;strokeColor=#3A5431;" vertex="1" parent="1">
          <mxGeometry x="530" y="375" width="120" height="60" as="geometry" />
        </mxCell>
        <mxCell id="G4ud9qvy3oYhWYAnnlkO-9" value="" style="edgeStyle=orthogonalEdgeStyle;rounded=0;orthogonalLoop=1;jettySize=auto;html=1;entryX=1.007;entryY=0.669;entryDx=0;entryDy=0;fillColor=#dae8fc;strokeColor=#6c8ebf;entryPerimeter=0;exitX=0;exitY=0.75;exitDx=0;exitDy=0;" edge="1" parent="1" source="G4ud9qvy3oYhWYAnnlkO-20" target="G4ud9qvy3oYhWYAnnlkO-2">
          <mxGeometry relative="1" as="geometry">
            <mxPoint x="960" y="560" as="sourcePoint" />
            <mxPoint x="770" y="255" as="targetPoint" />
            <Array as="points">
              <mxPoint x="720" y="515" />
              <mxPoint x="680" y="515" />
              <mxPoint x="680" y="260" />
              <mxPoint x="651" y="260" />
            </Array>
          </mxGeometry>
        </mxCell>
        <mxCell id="G4ud9qvy3oYhWYAnnlkO-14" value="" style="edgeStyle=orthogonalEdgeStyle;rounded=0;orthogonalLoop=1;jettySize=auto;html=1;" edge="1" parent="1" source="G4ud9qvy3oYhWYAnnlkO-6" target="G4ud9qvy3oYhWYAnnlkO-13">
          <mxGeometry relative="1" as="geometry" />
        </mxCell>
        <mxCell id="G4ud9qvy3oYhWYAnnlkO-25" value="" style="edgeStyle=orthogonalEdgeStyle;rounded=0;orthogonalLoop=1;jettySize=auto;html=1;" edge="1" parent="1" target="G4ud9qvy3oYhWYAnnlkO-20">
          <mxGeometry relative="1" as="geometry">
            <mxPoint x="650" y="535" as="sourcePoint" />
          </mxGeometry>
        </mxCell>
        <mxCell id="G4ud9qvy3oYhWYAnnlkO-6" value="Cryogenic biomethane separation" style="rounded=1;whiteSpace=wrap;html=1;fillColor=#6d8764;fontColor=#ffffff;strokeColor=#3A5431;" vertex="1" parent="1">
          <mxGeometry x="530" y="505" width="120" height="60" as="geometry" />
        </mxCell>
        <mxCell id="G4ud9qvy3oYhWYAnnlkO-13" value="Natural gas grid" style="whiteSpace=wrap;html=1;rounded=1;fillColor=#6d8764;fontColor=#ffffff;strokeColor=#3A5431;" vertex="1" parent="1">
          <mxGeometry x="530" y="660" width="120" height="60" as="geometry" />
        </mxCell>
        <mxCell id="G4ud9qvy3oYhWYAnnlkO-17" value="" style="edgeStyle=orthogonalEdgeStyle;rounded=0;orthogonalLoop=1;jettySize=auto;html=1;fillColor=#fff2cc;strokeColor=#d6b656;" edge="1" parent="1" source="G4ud9qvy3oYhWYAnnlkO-15" target="G4ud9qvy3oYhWYAnnlkO-2">
          <mxGeometry relative="1" as="geometry" />
        </mxCell>
        <mxCell id="G4ud9qvy3oYhWYAnnlkO-15" value="Electricity from the grid" style="whiteSpace=wrap;html=1;rounded=1;fillColor=#fff2cc;strokeColor=#d6b656;" vertex="1" parent="1">
          <mxGeometry x="720" y="145" width="120" height="60" as="geometry" />
        </mxCell>
        <mxCell id="G4ud9qvy3oYhWYAnnlkO-19" value="" style="edgeStyle=orthogonalEdgeStyle;rounded=0;orthogonalLoop=1;jettySize=auto;html=1;fillColor=#fff2cc;strokeColor=#d6b656;" edge="1" parent="1" source="G4ud9qvy3oYhWYAnnlkO-18" target="G4ud9qvy3oYhWYAnnlkO-2">
          <mxGeometry relative="1" as="geometry" />
        </mxCell>
        <mxCell id="G4ud9qvy3oYhWYAnnlkO-18" value="Heat from the biogas boiler" style="whiteSpace=wrap;html=1;rounded=1;fillColor=#fff2cc;strokeColor=#d6b656;" vertex="1" parent="1">
          <mxGeometry x="720" y="255" width="120" height="60" as="geometry" />
        </mxCell>
        <mxCell id="G4ud9qvy3oYhWYAnnlkO-20" value="CO2 blower" style="rounded=1;whiteSpace=wrap;html=1;fillColor=#b1ddf0;strokeColor=#10739e;" vertex="1" parent="1">
          <mxGeometry x="720" y="505" width="120" height="60" as="geometry" />
        </mxCell>
        <mxCell id="G4ud9qvy3oYhWYAnnlkO-23" value="Biofilter" style="rounded=1;whiteSpace=wrap;html=1;fillColor=#a0522d;fontColor=#ffffff;strokeColor=#6D1F00;" vertex="1" parent="1">
          <mxGeometry x="430" y="180" width="60" height="120" as="geometry" />
        </mxCell>
        <mxCell id="G4ud9qvy3oYhWYAnnlkO-27" value="Pig farm&lt;br&gt;300 m3/d liquid manure" style="rounded=1;whiteSpace=wrap;html=1;fillColor=#6d8764;fontColor=#ffffff;strokeColor=#3A5431;" vertex="1" parent="1">
          <mxGeometry x="160" y="80" width="120" height="60" as="geometry" />
        </mxCell>
        <mxCell id="G4ud9qvy3oYhWYAnnlkO-28" value="" style="edgeStyle=orthogonalEdgeStyle;rounded=0;orthogonalLoop=1;jettySize=auto;html=1;" edge="1" parent="1" target="G4ud9qvy3oYhWYAnnlkO-32">
          <mxGeometry relative="1" as="geometry">
            <mxPoint x="220" y="140" as="sourcePoint" />
          </mxGeometry>
        </mxCell>
        <mxCell id="G4ud9qvy3oYhWYAnnlkO-31" value="" style="edgeStyle=orthogonalEdgeStyle;rounded=0;orthogonalLoop=1;jettySize=auto;html=1;" edge="1" parent="1" source="G4ud9qvy3oYhWYAnnlkO-32" target="G4ud9qvy3oYhWYAnnlkO-36">
          <mxGeometry relative="1" as="geometry" />
        </mxCell>
        <mxCell id="G4ud9qvy3oYhWYAnnlkO-32" value="Digesters" style="rounded=1;whiteSpace=wrap;html=1;fillColor=#6d8764;fontColor=#ffffff;strokeColor=#3A5431;" vertex="1" parent="1">
          <mxGeometry x="160" y="200" width="120" height="60" as="geometry" />
        </mxCell>
        <mxCell id="G4ud9qvy3oYhWYAnnlkO-34" value="" style="edgeStyle=orthogonalEdgeStyle;rounded=0;orthogonalLoop=1;jettySize=auto;html=1;" edge="1" parent="1" source="G4ud9qvy3oYhWYAnnlkO-36" target="G4ud9qvy3oYhWYAnnlkO-37">
          <mxGeometry relative="1" as="geometry" />
        </mxCell>
        <mxCell id="G4ud9qvy3oYhWYAnnlkO-49" value="" style="edgeStyle=orthogonalEdgeStyle;rounded=0;orthogonalLoop=1;jettySize=auto;html=1;" edge="1" parent="1" source="G4ud9qvy3oYhWYAnnlkO-36" target="G4ud9qvy3oYhWYAnnlkO-48">
          <mxGeometry relative="1" as="geometry" />
        </mxCell>
        <mxCell id="G4ud9qvy3oYhWYAnnlkO-36" value="Cryogenic biomethane separation" style="rounded=1;whiteSpace=wrap;html=1;fillColor=#6d8764;fontColor=#ffffff;strokeColor=#3A5431;" vertex="1" parent="1">
          <mxGeometry x="160" y="330" width="120" height="60" as="geometry" />
        </mxCell>
        <mxCell id="G4ud9qvy3oYhWYAnnlkO-37" value="Natural gas grid" style="whiteSpace=wrap;html=1;rounded=1;fillColor=#6d8764;fontColor=#ffffff;strokeColor=#3A5431;" vertex="1" parent="1">
          <mxGeometry x="160" y="470" width="120" height="60" as="geometry" />
        </mxCell>
        <mxCell id="G4ud9qvy3oYhWYAnnlkO-45" value="" style="endArrow=none;dashed=1;html=1;dashPattern=1 3;strokeWidth=2;rounded=0;" edge="1" parent="1">
          <mxGeometry width="50" height="50" relative="1" as="geometry">
            <mxPoint x="400" y="760" as="sourcePoint" />
            <mxPoint x="400" y="10" as="targetPoint" />
          </mxGeometry>
        </mxCell>
        <mxCell id="G4ud9qvy3oYhWYAnnlkO-46" value="Reference system" style="text;html=1;strokeColor=none;fillColor=none;align=center;verticalAlign=middle;whiteSpace=wrap;rounded=0;fontSize=20;" vertex="1" parent="1">
          <mxGeometry x="20" y="20" width="120" height="30" as="geometry" />
        </mxCell>
        <mxCell id="G4ud9qvy3oYhWYAnnlkO-47" value="Carbon dioxide pretreatment system" style="text;html=1;strokeColor=none;fillColor=none;align=center;verticalAlign=middle;whiteSpace=wrap;rounded=0;fontSize=20;" vertex="1" parent="1">
          <mxGeometry x="630" y="20" width="200" height="30" as="geometry" />
        </mxCell>
        <mxCell id="G4ud9qvy3oYhWYAnnlkO-51" value="" style="edgeStyle=orthogonalEdgeStyle;rounded=0;orthogonalLoop=1;jettySize=auto;html=1;" edge="1" parent="1" source="G4ud9qvy3oYhWYAnnlkO-48" target="G4ud9qvy3oYhWYAnnlkO-50">
          <mxGeometry relative="1" as="geometry" />
        </mxCell>
        <mxCell id="G4ud9qvy3oYhWYAnnlkO-48" value="CO2" style="whiteSpace=wrap;html=1;fillColor=#b1ddf0;strokeColor=#10739e;rounded=1;" vertex="1" parent="1">
          <mxGeometry x="10" y="400" width="120" height="60" as="geometry" />
        </mxCell>
        <mxCell id="G4ud9qvy3oYhWYAnnlkO-53" value="" style="edgeStyle=orthogonalEdgeStyle;rounded=0;orthogonalLoop=1;jettySize=auto;html=1;" edge="1" parent="1" source="G4ud9qvy3oYhWYAnnlkO-50" target="G4ud9qvy3oYhWYAnnlkO-52">
          <mxGeometry relative="1" as="geometry" />
        </mxCell>
        <mxCell id="G4ud9qvy3oYhWYAnnlkO-50" value="CO2 blower" style="whiteSpace=wrap;html=1;fillColor=#b1ddf0;strokeColor=#10739e;rounded=1;" vertex="1" parent="1">
          <mxGeometry x="10" y="540" width="120" height="60" as="geometry" />
        </mxCell>
        <mxCell id="G4ud9qvy3oYhWYAnnlkO-55" value="" style="edgeStyle=orthogonalEdgeStyle;rounded=0;orthogonalLoop=1;jettySize=auto;html=1;" edge="1" parent="1" source="G4ud9qvy3oYhWYAnnlkO-52" target="G4ud9qvy3oYhWYAnnlkO-54">
          <mxGeometry relative="1" as="geometry" />
        </mxCell>
        <mxCell id="G4ud9qvy3oYhWYAnnlkO-52" value="Co2 compressor" style="whiteSpace=wrap;html=1;fillColor=#b1ddf0;strokeColor=#10739e;rounded=1;" vertex="1" parent="1">
          <mxGeometry x="10" y="660" width="120" height="60" as="geometry" />
        </mxCell>
        <mxCell id="G4ud9qvy3oYhWYAnnlkO-54" value="CO2 gas for technical purposes" style="whiteSpace=wrap;html=1;fillColor=#b1ddf0;strokeColor=#10739e;rounded=1;" vertex="1" parent="1">
          <mxGeometry x="160" y="660" width="120" height="60" as="geometry" />
        </mxCell>
      </root>
    </mxGraphModel>
  </diagram>
</mxfile>
